<?xml version="1.0" standalone="no"?>
<!DOCTYPE svg PUBLIC "-//W3C//DTD SVG 20010904//EN"
 "http://www.w3.org/TR/2001/REC-SVG-20010904/DTD/svg10.dtd">
<svg version="1.0" xmlns="http://www.w3.org/2000/svg"
 width="884.000000pt" height="472.000000pt" viewBox="0 0 884.000000 472.000000"
 preserveAspectRatio="xMidYMid meet">

<g transform="translate(0.000000,472.000000) scale(0.100000,-0.100000)"
fill="#000000" stroke="none">
<path d="M3360 3375 l0 -125 460 0 c260 0 460 -4 460 -9 0 -5 -137 -143 -305
-306 l-306 -298 3 -86 3 -86 230 -6 c262 -7 310 -16 418 -80 114 -68 160 -148
160 -279 0 -161 -68 -269 -217 -339 -106 -51 -189 -65 -352 -58 -192 7 -341
56 -493 160 -35 24 -45 27 -53 16 -28 -43 -99 -193 -95 -203 6 -15 135 -84
217 -116 278 -111 630 -119 871 -20 242 100 389 310 389 555 0 142 -37 241
-123 333 -104 109 -278 183 -480 203 -62 6 -128 13 -147 16 l-35 5 343 336
344 337 -4 85 -3 85 -642 3 -643 2 0 -125z"/>
<path d="M6652 3482 c-10 -10 -92 -184 -181 -388 -90 -203 -287 -645 -437
-983 -151 -337 -274 -617 -274 -622 0 -15 266 -11 277 4 6 6 54 116 109 243
l99 231 295 4 c162 2 404 2 538 -1 l243 -5 65 -150 c36 -82 83 -192 106 -242
l40 -93 145 0 c143 0 144 0 138 22 -4 11 -101 232 -216 489 -115 258 -209 471
-209 473 0 3 -22 51 -48 108 -27 57 -129 285 -228 507 -144 324 -184 405 -202
412 -13 5 -73 9 -133 9 -92 0 -112 -3 -127 -18z m312 -694 c99 -227 192 -438
206 -468 15 -30 31 -65 34 -77 l7 -23 -426 0 c-403 0 -427 1 -421 18 21 57
412 962 416 962 3 0 86 -186 184 -412z"/>
<path d="M7975 3478 c-3 -13 -4 -466 -3 -1008 l3 -985 133 -3 132 -3 0 1011 0
1010 -130 0 c-126 0 -130 -1 -135 -22z"/>
<path d="M2303 2935 c-394 -399 -485 -486 -504 -483 -17 2 -46 37 -109 129
-131 194 -159 229 -177 229 -23 0 -829 -805 -854 -852 -18 -34 -19 -61 -19
-357 0 -270 2 -320 15 -324 9 -4 122 102 334 313 176 176 333 327 348 337 25
17 70 18 548 24 552 6 556 7 671 59 188 85 353 238 438 407 64 129 106 341 93
479 -15 155 -80 318 -179 449 -46 60 -58 70 -88 73 -34 4 -46 -8 -517 -483z"/>
</g>
</svg>
